# Blender v2.80 (sub 75) OBJ File: 'untitled.blend'
# www.blender.org
mtllib cube.mtl
o Cube
v 0.966245 0.989748 -1.041166
v 0.966245 -1.010252 -1.041166
v 0.966245 0.989748 0.958834
v 0.966245 -1.010252 0.958834
v -1.033755 0.989748 -1.041166
v -1.033755 -1.010252 -1.041166
v -1.033755 0.989748 0.958834
v -1.033755 -1.010252 0.958834
vt 0.003714 -0.005859
vt 1.002784 -0.005859
vt 1.002784 0.993211
vt 0.003714 0.993211
vt -0.001679 -0.003891
vt 0.998413 -0.003891
vt 0.998413 0.996201
vt -0.001679 0.996201
vt 0.000708 0.001178
vt 0.995312 0.001178
vt 0.995312 0.995782
vt 0.000708 0.995782
vt 0.002388 0.000046
vt 1.001513 0.000046
vt 1.001513 0.999171
vt 0.002388 0.999171
vt -0.000459 -0.003094
vt 1.001295 -0.003094
vt 1.001295 0.998660
vt -0.000459 0.998660
vt 0.000000 -0.000938
vt 0.999277 0.000400
vt 1.001338 0.999892
vt 0.000185 1.000400
vn 0.0000 1.0000 0.0000
vn 0.0000 0.0000 1.0000
vn -1.0000 0.0000 0.0000
vn 0.0000 -1.0000 0.0000
vn 1.0000 0.0000 0.0000
vn 0.0000 0.0000 -1.0000
usemtl Material
s off
f 1/1/1 5/2/1 7/3/1 3/4/1
f 4/5/2 3/6/2 7/7/2 8/8/2
f 8/9/3 7/10/3 5/11/3 6/12/3
f 6/13/4 2/14/4 4/15/4 8/16/4
f 2/17/5 1/18/5 3/19/5 4/20/5
f 6/21/6 5/22/6 1/23/6 2/24/6
